<svg xmlns="http://www.w3.org/2000/svg" width="54.917" height="47.459" viewBox="0 0 54.917 47.459"><g transform="translate(22.548 -12.48)"><g transform="translate(-22.548 12.48)"><path d="M5.822,12.48H-19.8a2.754,2.754,0,0,0-2.743,2.743.917.917,0,0,0,1.833,0,.886.886,0,0,1,.91-.913H29.626a.889.889,0,0,1,.913.913v9.153a.891.891,0,0,1-.913.913H-19.8a.888.888,0,0,1-.91-.913V18.883a.917.917,0,0,0-1.833,0v5.493A2.757,2.757,0,0,0-19.8,27.12H29.626a2.757,2.757,0,0,0,2.743-2.743V15.223a2.754,2.754,0,0,0-2.743-2.743H5.822Zm-23.8,3.653a.915.915,0,0,0-.91.92v5.493a.911.911,0,0,0,.91.91H3.992a.91.91,0,0,0,.917-.91V17.053a.915.915,0,0,0-.917-.92Zm.92,1.83H3.079v3.663H-17.055Zm33.864,2.754a.917.917,0,0,0,0-1.833H14.934a.917.917,0,1,0,.045,1.833Zm3.66,0H22.3a.917.917,0,0,0,0-1.833H20.424A.917.917,0,1,0,20.469,20.717Zm7.327,0a.917.917,0,0,0,0-1.833H25.918a.917.917,0,1,0,.045,1.833Z" transform="translate(22.548 -12.48)"/></g><g transform="translate(-22.548 28.888)"><path d="M5.822,17.223H-19.8a2.757,2.757,0,0,0-2.743,2.743.917.917,0,0,0,1.833,0,.888.888,0,0,1,.91-.913H29.626a.891.891,0,0,1,.913.913V29.12a.891.891,0,0,1-.913.913H-19.8a.888.888,0,0,1-.91-.913V23.63a.917.917,0,0,0-1.833,0v5.49A2.756,2.756,0,0,0-19.8,31.863H29.626a2.757,2.757,0,0,0,2.743-2.743V19.966a2.757,2.757,0,0,0-2.743-2.743H5.822Zm-23.8,3.653a.915.915,0,0,0-.91.92V27.29a.911.911,0,0,0,.91.91H3.992a.91.91,0,0,0,.917-.91V21.8a.915.915,0,0,0-.917-.92Zm.92,1.83H3.079V26.37H-17.055ZM16.809,25.46a.915.915,0,1,0,0-1.83H14.934a.915.915,0,1,0,.045,1.83Zm3.66,0H22.3a.915.915,0,1,0,0-1.83H20.424A.915.915,0,1,0,20.469,25.46Zm7.327,0a.915.915,0,1,0,0-1.83H25.918a.915.915,0,1,0,.045,1.83Z" transform="translate(22.548 -17.223)"/></g><g transform="translate(-22.548 45.296)"><path d="M5.822,21.966H-19.8a2.757,2.757,0,0,0-2.743,2.743.917.917,0,0,0,1.833,0,.888.888,0,0,1,.91-.913H29.626a.891.891,0,0,1,.913.913v9.153a.891.891,0,0,1-.913.913H-19.8a.888.888,0,0,1-.91-.913v-5.49a.917.917,0,0,0-1.833,0v5.49A2.759,2.759,0,0,0-19.8,36.609H29.626a2.759,2.759,0,0,0,2.743-2.747V24.709a2.757,2.757,0,0,0-2.743-2.743H5.822Zm-23.8,3.653a.915.915,0,0,0-.91.92v5.493a.914.914,0,0,0,.91.913H3.992a.915.915,0,0,0,.917-.913V26.539a.915.915,0,0,0-.917-.92Zm.92,1.833H3.079v3.66H-17.055ZM16.809,30.2a.915.915,0,1,0,0-1.83H14.934a.915.915,0,1,0,.045,1.83Zm3.66,0H22.3a.915.915,0,1,0,0-1.83H20.424A.915.915,0,1,0,20.469,30.2Zm7.327,0a.915.915,0,1,0,0-1.83H25.918a.915.915,0,1,0,.045,1.83Z" transform="translate(22.548 -21.966)"/></g></g></svg>