<svg xmlns="http://www.w3.org/2000/svg" width="58.335" height="58.335" viewBox="0 0 58.335 58.335"><g transform="translate(-0.528 -0.529)"><path d="M29.7.529A14.571,14.571,0,0,0,19.39,4.8a.973.973,0,1,0,1.371,1.382,12.642,12.642,0,0,1,17.881,0A.973.973,0,1,0,40.012,4.8,14.6,14.6,0,0,0,29.7.529Zm0,3.891a10.683,10.683,0,0,0-7.559,3.131.973.973,0,1,0,1.374,1.374,8.747,8.747,0,0,1,12.369,0A.973.973,0,0,0,37.26,7.551,10.691,10.691,0,0,0,29.7,4.42Zm0,3.888a6.793,6.793,0,0,0-4.81,1.988.973.973,0,1,0,1.371,1.382,4.866,4.866,0,0,1,6.875,0A.977.977,0,0,0,34.515,10.3,6.823,6.823,0,0,0,29.7,8.308Zm0,3.891a2.914,2.914,0,1,0,2.921,2.914A2.926,2.926,0,0,0,29.7,12.2Zm0,1.937a.972.972,0,1,1,0,1.944.972.972,0,0,1,0-1.944ZM6.363,19.972a2.934,2.934,0,0,0-2.914,2.921V48.171a.974.974,0,1,0,1.948,0V22.893a.95.95,0,0,1,.966-.977H53.039a.948.948,0,0,1,.966.977V48.171a.972.972,0,1,0,1.944,0V22.886a2.932,2.932,0,0,0-2.91-2.914Zm2.921,5.835a.974.974,0,0,0-.974.977v3.88a.969.969,0,0,0,.974.977H50.114a.97.97,0,0,0,.977-.977v-3.88a.975.975,0,0,0-.977-.977Zm.97,1.944H49.148V29.7H10.255ZM8.311,34.556V46.227a.972.972,0,0,0,.974.97H25.813a.976.976,0,0,0,.97-.97V44.28a.972.972,0,0,0-1.944,0v.97H10.255V35.534H24.84v4.858a.972.972,0,0,0,1.944,0V34.556a.976.976,0,0,0-.97-.97H9.237a.981.981,0,0,0-.926.97Zm40.837.977a.974.974,0,1,0,0-1.948H35.485a.974.974,0,0,0,.048,1.948Zm0,3.888a.972.972,0,1,0,0-1.944H29.65a.972.972,0,1,0,.048,1.944Zm-19.5,1.948a.97.97,0,0,0,.048,1.937h19.45a.972.972,0,1,0,.051-1.94Zm.048,3.88a.974.974,0,0,0,0,1.948H45.256a.974.974,0,0,0,0-1.948ZM1.505,51.085a.975.975,0,0,0-.977.977v1.944A4.873,4.873,0,0,0,5.4,58.864H54.005a4.863,4.863,0,0,0,4.858-4.858V52.063a.97.97,0,0,0-.966-.977H36.507a.969.969,0,0,0-.974.977v.966H23.87v-.966a.969.969,0,0,0-.974-.977Zm.97,1.944h19.45v.977a.969.969,0,0,0,.97.97H36.507a.969.969,0,0,0,.97-.97v-.977H56.919v.977a2.882,2.882,0,0,1-2.914,2.914H5.4a2.888,2.888,0,0,1-2.921-2.914Z" transform="translate(0 0)"/></g></svg>