<svg xmlns="http://www.w3.org/2000/svg" width="58.18" height="58.179" viewBox="0 0 58.18 58.179"><g transform="translate(-0.529 -0.528)"><path d="M29.617.528A14.554,14.554,0,0,0,19.333,4.794.969.969,0,1,0,20.7,6.161a12.608,12.608,0,0,1,17.826,0A.969.969,0,1,0,39.9,4.794,14.562,14.562,0,0,0,29.617.528Zm0,3.881a10.661,10.661,0,0,0-7.539,3.13.971.971,0,1,0,1.371,1.367,8.719,8.719,0,0,1,12.339,0,.969.969,0,1,0,1.374-1.367A10.678,10.678,0,0,0,29.617,4.409Zm0,3.881a6.776,6.776,0,0,0-4.794,1.986.971.971,0,1,0,1.367,1.378,4.844,4.844,0,0,1,6.853-.011.971.971,0,1,0,1.378-1.367A6.808,6.808,0,0,0,29.617,8.29Zm0,3.877a2.91,2.91,0,1,0,2.914,2.906A2.92,2.92,0,0,0,29.617,12.168Zm0,1.939a.969.969,0,1,1-.964.968A.959.959,0,0,1,29.617,14.106Zm8.726,1.939a2.923,2.923,0,0,0-2.906,2.91v1.939a.969.969,0,0,0,.975.971H56.766V46.1a.948.948,0,0,1-.968.975H38.343a.95.95,0,0,1-.968-.975v-.968H53.86a.969.969,0,1,0,0-1.939H37.375V24.775a.97.97,0,1,0-1.939,0V46.1a2.927,2.927,0,0,0,2.906,2.914H55.8a2.927,2.927,0,0,0,2.91-2.914V18.955a2.924,2.924,0,0,0-2.91-2.91Zm0,1.942H55.8a.942.942,0,0,1,.968.968v.971H37.375v-.971A.944.944,0,0,1,38.343,17.987ZM8.288,49.017H23.8a.97.97,0,1,0,0-1.939H21.551l-1.169-2.917h8.272a2.914,2.914,0,0,0,2.9-2.9V23.807a2.923,2.923,0,0,0-2.9-2.914H3.439a2.93,2.93,0,0,0-2.91,2.914.97.97,0,1,0,1.939,0,.95.95,0,0,1,.971-.971H28.653a.944.944,0,0,1,.964.971V41.259a.938.938,0,0,1-.964.964H3.439a.944.944,0,0,1-.971-.964V27.677a.97.97,0,1,0-1.939,0V41.259a2.92,2.92,0,0,0,2.91,2.9h8.268l-1.169,2.917h-2.3A.97.97,0,0,0,8.288,49.017Zm1.939-24.243a.969.969,0,0,0-.975.971V39.317a.972.972,0,0,0,.975.975h11.64a.971.971,0,0,0,.968-.975V35.439a.971.971,0,1,0-1.942,0v2.914h-9.7V26.713h3.877v4.845a.974.974,0,0,0,.975.975h5.82a.97.97,0,0,0,.682-1.653l-5.812-5.82a.977.977,0,0,0-.689-.286Zm31.03,0a.967.967,0,0,0-.975.971V39.317a.972.972,0,0,0,.975.975H52.889a.967.967,0,0,0,.971-.975V35.439a.97.97,0,0,0-1.939,0v2.914h-9.7V26.713H46.1v4.845a.974.974,0,0,0,.975.975h5.812a.969.969,0,0,0,.685-1.653l-5.82-5.82a.952.952,0,0,0-.678-.286ZM17.014,28.08l2.51,2.51h-2.51Zm31.03,0,2.51,2.51h-2.51ZM13.792,44.162h4.5l1.165,2.917H12.627Zm2.239,6.78a.975.975,0,0,0-.96.982V55.8a2.924,2.924,0,0,0,2.914,2.906H45.138A2.918,2.918,0,0,0,48.044,55.8V51.924a.971.971,0,0,0-1.942,0V55.8a.939.939,0,0,1-.964.968H17.985a.945.945,0,0,1-.971-.968V51.924A.975.975,0,0,0,16.031,50.941Z" transform="translate(0 0)"/></g></svg>