<svg xmlns="http://www.w3.org/2000/svg" width="42.872" height="41.659" viewBox="0 0 42.872 41.659"><path d="M61.728,35.26l-6.609-4.8c-1.974-1.432-3.585.4-4.55,1.488-1.347,1.531-1.63,1.55-2.1,1.215a56.327,56.327,0,0,1-7.094-6.039,56.307,56.307,0,0,1-6.044-7.094c-.334-.471-.316-.758,1.215-2.106,1.093-.961,2.925-2.577,1.489-4.55l-4.8-6.609c-1.366-1.884-3.17-1.569-4.593-1.088a14.627,14.627,0,0,0-5.285,3.269c-2.044,2.04-1.9,5.874.4,10.792A53.664,53.664,0,0,0,34.374,34.129,53.853,53.853,0,0,0,48.755,44.742a16.733,16.733,0,0,0,6.816,1.832,5.416,5.416,0,0,0,3.98-1.437,14.64,14.64,0,0,0,3.264-5.285C63.3,38.435,63.612,36.626,61.728,35.26Zm-1.083,3.853a12.269,12.269,0,0,1-2.718,4.4c-1.267,1.272-4.334.952-8.2-.853A51.471,51.471,0,0,1,35.995,32.509,51.282,51.282,0,0,1,25.839,18.773c-1.809-3.863-2.129-6.929-.857-8.2a12.334,12.334,0,0,1,4.4-2.718,3.6,3.6,0,0,1,1.135-.24.928.928,0,0,1,.862.5l4.8,6.609c.146.2.019.452-1.149,1.484-1.206,1.06-3.217,2.831-1.573,5.149a58.836,58.836,0,0,0,6.288,7.391,59.173,59.173,0,0,0,7.391,6.288c2.318,1.644,4.089-.367,5.149-1.569,1.032-1.173,1.281-1.3,1.484-1.149l6.609,4.8C60.791,37.413,61.139,37.667,60.645,39.113Zm-7.183-34.2a15.573,15.573,0,0,0-11,4.564,1.037,1.037,0,1,0,1.47,1.46,13.476,13.476,0,0,1,19.059,0,1.036,1.036,0,1,0,1.47-1.46A15.565,15.565,0,0,0,53.461,4.915Zm0,4.15a11.4,11.4,0,0,0-8.06,3.344,1.039,1.039,0,1,0,1.465,1.465,9.319,9.319,0,0,1,13.194,0,1.038,1.038,0,1,0,1.47-1.465A11.421,11.421,0,0,0,53.461,9.065Zm0,4.15a7.245,7.245,0,0,0-5.125,2.124,1.038,1.038,0,1,0,1.46,1.474,5.18,5.18,0,0,1,7.334-.009,1.038,1.038,0,1,0,1.47-1.465A7.289,7.289,0,0,0,53.461,13.215Zm0,4.15a3.111,3.111,0,1,0,3.118,3.1A3.12,3.12,0,0,0,53.461,17.365Zm0,2.073a1.036,1.036,0,1,1-1.032,1.032A1.022,1.022,0,0,1,53.461,19.437Z" transform="translate(-21.926 -4.915)"/></svg>