<svg xmlns="http://www.w3.org/2000/svg" width="56.072" height="55.978" viewBox="0 0 56.072 55.978"><g transform="translate(-0.529 -0.53)"><path d="M35.047.53a13.982,13.982,0,0,0-9.891,4.1A.933.933,0,1,0,26.471,5.95a12.131,12.131,0,0,1,17.158,0,.933.933,0,1,0,1.315-1.322A14,14,0,0,0,35.047.53Zm0,3.731a10.237,10.237,0,0,0-7.25,3,.933.933,0,1,0,1.315,1.322,8.4,8.4,0,0,1,11.876,0,.934.934,0,1,0,1.319-1.322A10.273,10.273,0,0,0,35.047,4.261Zm0,3.734A6.531,6.531,0,0,0,30.431,9.9a.933.933,0,1,0,1.315,1.322,4.657,4.657,0,0,1,6.6,0A.935.935,0,1,0,39.67,9.9,6.547,6.547,0,0,0,35.047,7.995Zm0,3.724a2.8,2.8,0,1,0,2.8,2.8A2.814,2.814,0,0,0,35.047,11.719Zm0,1.869a.933.933,0,1,1,0,1.865.933.933,0,0,1,0-1.865Zm-23.16.335-2.9,10.815a.938.938,0,0,0,.663,1.142L29.468,31.2a.942.942,0,0,0,.945-.282L32.8,28.221l12.959,3.47a.928.928,0,0,0,1-.356l4.637-6.481a.935.935,0,0,0-.518-1.446L12.92,13.238A.924.924,0,0,0,11.887,13.922Zm1.555,1.386,35.646,9.552-3.477,4.863L32.719,26.275a.93.93,0,0,0-.938.282L29.4,29.24,11.023,24.325Zm1.012,7.853,1.8.487a.933.933,0,1,0,.483-1.8l-1.95-.518A.935.935,0,0,0,14.454,23.161Zm5.409,1.453L26.171,26.3a.929.929,0,0,0,.48-1.795L20.233,22.78a.937.937,0,0,0-.37,1.834Zm32.265,4.923L49.233,40.358,13.188,30.693l.208-.783a.935.935,0,1,0-1.8-.49l-.451,1.7a.933.933,0,0,0,.659,1.142l12.617,3.378-.73,2.7a.932.932,0,0,0,.663,1.142l2.7.723-.3,1.114a.934.934,0,0,0,1.805.483l.3-1.114,1.8.483-.994,3.717a4.565,4.565,0,0,0-5.783,1.358H6.129V42.513a.938.938,0,0,0-.938-.938H1.467a.938.938,0,0,0-.938.938V55.57a.938.938,0,0,0,.938.938H5.191a.938.938,0,0,0,.938-.938V51.836H20.473a.933.933,0,1,0,0-1.865H6.129V48.112H23.012a4.736,4.736,0,0,0-.092.931,4.665,4.665,0,0,0,9.33,0,4.625,4.625,0,0,0-1-2.849l1.213-4.535,2.7.726a.935.935,0,0,0,1.142-.663l.723-2.7L49.649,42.4a.932.932,0,0,0,1.142-.663l.571-2.137,3.526-.726a.935.935,0,0,0,.716-.677l.966-3.6a.939.939,0,0,0-.286-.938l-2.69-2.387.578-2.144a.931.931,0,0,0-.663-1.142l-1.15-.31c-1.114-.317-1.862,1.527-.233,1.865Zm.927,3.745,1.566,1.386-.67,2.489-2.045.416ZM26.217,36.12l9.013,2.415-.48,1.8-9.013-2.419ZM2.394,43.44H4.26v11.2H2.394Zm25.195,2.807a2.795,2.795,0,1,1-2.8,2.8A2.78,2.78,0,0,1,27.589,46.247Zm0,1.862a.933.933,0,1,0,.934.934A.934.934,0,0,0,27.585,48.109Z" transform="translate(0)"/></g></svg>