<svg xmlns="http://www.w3.org/2000/svg" width="59.106" height="51.231" viewBox="0 0 59.106 51.231"><g transform="translate(-20.713 -1.587)"><g transform="translate(34.265 1.587)"><g transform="translate(3.824 14.089)"><path d="M29.274,13.912c2.249,0,3.9-2.547,3.9-4.647a3.9,3.9,0,0,0-7.793,0C25.38,11.365,27.1,13.912,29.274,13.912Zm0-7.119a2.413,2.413,0,0,1,2.4,2.4c0,1.426-1.124,3.15-2.4,3.15s-2.4-1.8-2.4-3.15A2.368,2.368,0,0,1,29.274,6.793Z" transform="translate(-25.38 -5.371)"/></g><g transform="translate(10.19)"><path d="M47.326,9.83V2.335a.708.708,0,0,0-.752-.748H27.842a.708.708,0,0,0-.752.748v7.42l.034,3.894a.71.71,0,0,0,.748.752H38.032v3.072a.654.654,0,0,0,.451.674A.685.685,0,0,0,39.306,18l4.047-3.671h3.221a.711.711,0,0,0,.752-.752V9.83ZM28.516,3.087H45.751v9.74H42.977a.821.821,0,0,0-.525.223l-3,2.7V13.576a.707.707,0,0,0-.748-.748H28.516V3.087Z" transform="translate(-27.09 -1.587)"/></g><g transform="translate(0 23.445)"><path d="M39.942,15.986v-3.82c0-2.848-2.7-3.824-5.548-4.271a.741.741,0,0,0-.823.6,6.811,6.811,0,0,1-1.426,3.072,6.8,6.8,0,0,1-1.422-3.072.741.741,0,0,0-.823-.6c-2.848.447-5.548,1.422-5.548,4.271v3.82a.71.71,0,0,0,.748.752H39.264A.805.805,0,0,0,39.942,15.986Zm-1.5-.748H25.779V12.166c0-1.8,1.8-2.323,3.6-2.7a8.015,8.015,0,0,0,2.171,3.675.729.729,0,0,0,1.05,0,8.421,8.421,0,0,0,2.174-3.675c1.8.376,3.6.827,3.6,2.7v3.072Z" transform="translate(-24.353 -7.884)"/></g><g transform="translate(13.489 3.448)"><path d="M28.724,4.01H40.717a.707.707,0,0,0,.748-.748.707.707,0,0,0-.748-.748H28.724a.707.707,0,0,0-.748.748A.8.8,0,0,0,28.724,4.01Z" transform="translate(-27.976 -2.513)"/></g><g transform="translate(13.489 7.193)"><path d="M28.724,5.019h1.724a.711.711,0,0,0,.752-.752.71.71,0,0,0-.752-.748H28.724a.709.709,0,0,0-.748.748A.808.808,0,0,0,28.724,5.019Z" transform="translate(-27.976 -3.519)"/></g><g transform="translate(18.661 7.193)"><path d="M31.837,3.519H30.113a.707.707,0,0,0-.748.748.708.708,0,0,0,.748.752h1.724a.708.708,0,0,0,.748-.752A.75.75,0,0,0,31.837,3.519Z" transform="translate(-29.365 -3.519)"/></g><g transform="translate(23.754 7.193)"><path d="M33.209,3.519H31.485a.71.71,0,0,0-.752.748.711.711,0,0,0,.752.752h1.724a.71.71,0,0,0,.748-.752A.709.709,0,0,0,33.209,3.519Z" transform="translate(-30.733 -3.519)"/></g><rect width="10.68" height="1.97" rx="0.265" transform="translate(20.326 30.327)"/><rect width="10.68" height="1.97" rx="0.265" transform="translate(20.326 26.479)"/><rect width="10.68" height="1.97" rx="0.265" transform="translate(20.326 22.746)"/><rect width="10.68" height="1.97" rx="0.265" transform="translate(20.326 18.971)"/></g><g transform="translate(20.713 1.587)"><path d="M24.079,11.439H35.085V9.469H25.066V3.557H35.085V1.587H24.079a.988.988,0,0,0-.983.99v7.875A.985.985,0,0,0,24.079,11.439Z" transform="translate(-14.224 -1.587)"/><path d="M35.756,6.736a.962.962,0,0,1,.983.987v25.6a.985.985,0,1,0,1.97,0V7.715a2.983,2.983,0,0,0-3-2.952A.987.987,0,1,0,35.756,6.736Z" transform="translate(17.445 7.062)"/><circle cx="0.985" cy="0.985" r="0.985" transform="translate(16.75 3.942)"/><path d="M33.279,3.557h1.486V9.469H33.279v1.97h1.486V34.1a.985.985,0,1,0,1.97,0V2.577a.983.983,0,0,0-.979-.99H33.279Z" transform="translate(13.507 -1.587)"/><circle cx="0.985" cy="0.985" r="0.985" transform="translate(12.809 3.942)"/><path d="M78.836,13.23H57.167a.991.991,0,0,0-.99.983V15.2H44.363v-.987a.988.988,0,0,0-.99-.983H21.651a.989.989,0,0,0-.938.983v1.97a4.945,4.945,0,0,0,4.93,4.93H74.9a4.939,4.939,0,0,0,4.922-4.93v-1.97A.987.987,0,0,0,78.836,13.23Zm-.987,2.952a2.93,2.93,0,0,1-2.953,2.96H25.643a2.937,2.937,0,0,1-2.96-2.96V15.2H42.389v.983a.985.985,0,0,0,.983.987H57.167a.983.983,0,0,0,.983-.987V15.2h19.7Z" transform="translate(-20.713 30.119)"/><path d="M24.079,32.356H63.485a.985.985,0,0,0,.979-.99V29.4a.985.985,0,1,0-1.97,0v.983H25.066V5.757a.985.985,0,1,0-1.97,0V31.365A.991.991,0,0,0,24.079,32.356Z" transform="translate(-14.224 7.051)"/><path d="M23.478,33.327V7.715a.956.956,0,0,1,.983-.979.987.987,0,0,0,0-1.973,2.967,2.967,0,0,0-2.953,2.952V33.327A.985.985,0,1,0,23.478,33.327Z" transform="translate(-18.548 7.062)"/><circle cx="0.985" cy="0.985" r="0.985" transform="translate(19.877 0)"/><circle cx="0.985" cy="0.985" r="0.985" transform="translate(19.877 7.882)"/><circle cx="0.985" cy="0.985" r="0.985" transform="translate(45.8 7.882)"/><circle cx="0.985" cy="0.985" r="0.985" transform="translate(45.8)"/></g></g></svg>