<svg xmlns="http://www.w3.org/2000/svg" width="43.467" height="58.802" viewBox="0 0 43.467 58.802"><g transform="translate(4.834 14.069)"><g transform="translate(-7.434 -14.598)"><path d="M24.333.529a14.7,14.7,0,0,0-10.394,4.3.982.982,0,0,0,1.385,1.393,12.734,12.734,0,0,1,18.017,0,.984.984,0,0,0,1.389-1.393A14.7,14.7,0,0,0,24.333.529Zm0,3.923a10.785,10.785,0,0,0-7.627,3.156A.982.982,0,1,0,18.1,8.993a8.822,8.822,0,0,1,12.472,0,.979.979,0,1,0,1.382-1.385A10.768,10.768,0,0,0,24.333,4.452Zm0,3.919a6.863,6.863,0,0,0-4.852,2,.982.982,0,0,0,1.385,1.393,4.909,4.909,0,0,1,6.934,0,.981.981,0,1,0,1.382-1.393A6.861,6.861,0,0,0,24.333,8.371Zm0,3.923a2.937,2.937,0,1,0,2.937,2.937A2.958,2.958,0,0,0,24.333,12.293Zm0,1.952a.98.98,0,1,1-.982.985A.969.969,0,0,1,24.333,14.245Zm8.819,5.867a.987.987,0,0,0-.978.978v1a.98.98,0,1,0,1.952,0v-.015H38.05V27.9L24.826,20.257a.932.932,0,0,0-.985,0L3.087,32.247a.98.98,0,0,0-.356,1.337l2.134,3.7A.981.981,0,0,0,6.2,37.64L24.333,27.173,38.05,35.092v22.28H19.429V41.693h9.8V54.435a.982.982,0,0,0,1.963,0V40.711a.982.982,0,0,0-.978-.978H18.4a.982.982,0,0,0-.926.978V57.372H10.61V39.733a.98.98,0,1,0-1.959,0V58.346a.979.979,0,0,0,.982.985h29.4a.98.98,0,0,0,.974-.985V36.225l2.452,1.415a.984.984,0,0,0,1.341-.359l2.134-3.7a.977.977,0,0,0-.363-1.337l-5.564-3.215V21.09a.976.976,0,0,0-.974-.978Zm-8.819,2.13L43.75,33.455l-1.156,2L24.826,25.195a.977.977,0,0,0-.985,0L6.072,35.451l-1.156-2Z" transform="translate(0 0)"/></g></g></svg>