<svg xmlns="http://www.w3.org/2000/svg" width="50.817" height="50.82" viewBox="0 0 50.817 50.82"><g transform="translate(-0.529 -0.529)"><path d="M23.186,7.194a.846.846,0,0,0,1.277-.144,10.983,10.983,0,0,1,19.885,8.32.853.853,0,0,0,.515.957,7.619,7.619,0,0,1-2.833,14.693H39.489a.847.847,0,1,0,0,1.693h2.542a9.308,9.308,0,0,0,4.094-17.67,11.765,11.765,0,0,0,.141-1.805A12.718,12.718,0,0,0,33.561.529a12.512,12.512,0,0,0-9.955,4.827,7.465,7.465,0,0,0-4.443-1.44A7.545,7.545,0,0,0,12.61,7.651a.847.847,0,1,0,1.453.867,5.92,5.92,0,0,1,9.123-1.325ZM.529,21.7A11.023,11.023,0,0,0,11.541,32.713h3.39v5.932a.828.828,0,0,1-.855.842H5.452a2.559,2.559,0,0,0-2.385-1.693,2.542,2.542,0,1,0,2.388,3.39h8.621a2.557,2.557,0,0,0,2.548-2.538V31.992a.848.848,0,0,0-.848-.973H11.541a9.317,9.317,0,1,1,0-18.634c.256,0,.535.016.832.019a.847.847,0,1,0,.029-1.693c-.262,0-.547-.019-.858-.019A11.024,11.024,0,0,0,.529,21.7Zm25.41-9.318a12.708,12.708,0,0,0-8.985,3.72.849.849,0,1,0,1.2,1.2,11,11,0,0,1,15.57,0,.848.848,0,1,0,1.2-1.2A12.706,12.706,0,0,0,25.939,12.386Zm0,3.39a9.324,9.324,0,0,0-6.591,2.731.847.847,0,1,0,1.2,1.194,7.624,7.624,0,0,1,10.778,0,.849.849,0,1,0,1.2-1.2A9.324,9.324,0,0,0,25.939,15.776Zm0,3.387a5.939,5.939,0,0,0-4.2,1.738.847.847,0,1,0,1.2,1.194,4.251,4.251,0,0,1,5.992,0A.847.847,0,1,0,30.129,20.9,5.935,5.935,0,0,0,25.939,19.163Zm0,3.39a2.542,2.542,0,1,0,2.538,2.538A2.547,2.547,0,0,0,25.939,22.552Zm0,1.693a.847.847,0,0,1,0,1.693.847.847,0,1,1,0-1.693Zm-6.777,6.773a.847.847,0,1,0,0,1.693h2.545v14.4a.833.833,0,0,1-.851.848H12.229a2.548,2.548,0,1,0,0,1.693h8.63A2.559,2.559,0,0,0,23.4,47.111V31.98a.849.849,0,0,0-.851-.96Zm6.777,0a.847.847,0,1,0,0,1.693h2.538v14.4a2.557,2.557,0,0,0,2.545,2.542h8.624a2.536,2.536,0,1,0,0-1.693H31.023a.833.833,0,0,1-.851-.848V32.021a.847.847,0,0,0-.845-1Zm6.773,0a.847.847,0,1,0,0,1.693h2.542v5.932a2.551,2.551,0,0,0,2.538,2.538H46.42a2.546,2.546,0,1,0,0-1.7h-8.63a.822.822,0,0,1-.845-.842V32.008a.847.847,0,0,0-.845-.989ZM3.067,39.486a.842.842,0,0,1,.851.855.833.833,0,0,1-.851.842.827.827,0,0,1-.842-.842A.836.836,0,0,1,3.067,39.486Zm45.74,0a.836.836,0,0,1,.845.855.847.847,0,0,1-1.693,0A.841.841,0,0,1,48.808,39.486ZM9.847,47.959A.848.848,0,1,1,9,48.8.835.835,0,0,1,9.847,47.959Zm32.184,0a.848.848,0,0,1,0,1.7.848.848,0,0,1,0-1.7Z" transform="translate(0 0)"/></g></svg>